<svg width="19" height="9" viewBox="0 0 19 9" fill="none" xmlns="http://www.w3.org/2000/svg">
<path d="M10.039 8.455L10.0391 8.45497L17.9957 1.51702L17.9957 1.517C18.302 1.24974 18.3014 0.810564 17.9941 0.543858L17.9941 0.543838C17.695 0.284403 17.2156 0.285062 16.9173 0.545177L16.9172 0.545179L9.49997 7.01285L2.08274 0.544945L2.08272 0.544934C1.78437 0.284859 1.3052 0.2842 1.00608 0.543594L1.00605 0.543623C0.854139 0.675482 0.775013 0.851623 0.775013 1.03097C0.775013 1.20982 0.853609 1.38531 1.00451 1.51697L1.00453 1.51699L8.9608 8.45489C9.10564 8.58148 9.3 8.65051 9.49997 8.65051C9.70006 8.65051 9.89412 8.58124 10.039 8.455Z" fill="#222222" stroke="#222222" stroke-width="0.2"/>
</svg>
