<svg width="24" height="24" viewBox="0 0 24 24" fill="none" xmlns="http://www.w3.org/2000/svg">
<path d="M17.9996 0H5.99985C2.70023 0 0 2.70023 0 5.99985V18.0001C0 21.2989 2.70023 24 5.99985 24H17.9996C21.2992 24 23.9994 21.2989 23.9994 18.0001V5.99985C23.9994 2.70023 21.2992 0 17.9996 0ZM21.9994 18.0001C21.9994 20.2051 20.2057 22 17.9996 22H5.99985C3.79461 22 2.00005 20.2051 2.00005 18.0001V5.99985C2.00005 3.79432 3.79461 2.00005 5.99985 2.00005H17.9996C20.2057 2.00005 21.9994 3.79432 21.9994 5.99985V18.0001Z" fill="#65BA22"/>
<path d="M18.5 6.99968C19.3284 6.99968 19.9999 6.32813 19.9999 5.49972C19.9999 4.67131 19.3284 3.99976 18.5 3.99976C17.6716 3.99976 17 4.67131 17 5.49972C17 6.32813 17.6716 6.99968 18.5 6.99968Z" fill="#65BA22"/>
<path d="M11.9999 5.99988C8.68552 5.99988 6 8.68569 6 11.9997C6 15.3125 8.68552 18.0002 11.9999 18.0002C15.3132 18.0002 17.9997 15.3125 17.9997 11.9997C17.9997 8.68569 15.3132 5.99988 11.9999 5.99988ZM11.9999 16.0001C9.79098 16.0001 8.00005 14.2092 8.00005 11.9997C8.00005 9.79028 9.79098 7.99993 11.9999 7.99993C14.2087 7.99993 15.9997 9.79028 15.9997 11.9997C15.9997 14.2092 14.2087 16.0001 11.9999 16.0001Z" fill="#65BA22"/>
</svg>
