<svg width="25" height="25" viewBox="0 0 25 25" fill="none" xmlns="http://www.w3.org/2000/svg">
<g clip-path="url(#clip0_2973_502)">
<path d="M6.0341 13.186L17.5973 24.7173C17.9762 25.0949 18.5896 25.0942 18.9678 24.7153C19.3457 24.3365 19.3447 23.7228 18.9658 23.3449L8.09088 12.5L18.9662 1.65508C19.3451 1.27715 19.3461 0.663822 18.9682 0.284918C18.7786 0.0949764 18.5302 5.65903e-06 18.2818 5.63732e-06C18.0341 5.61566e-06 17.7866 0.0943412 17.5974 0.282963L6.0341 11.8139C5.85163 11.9955 5.74923 12.2425 5.74923 12.5C5.74923 12.7574 5.85192 13.0042 6.0341 13.186Z" fill="black"/>
</g>
<defs>
<clipPath id="clip0_2973_502">
<rect width="25" height="25" fill="white" transform="translate(25 25) rotate(-180)"/>
</clipPath>
</defs>
</svg>
