<svg width="24" height="24" viewBox="0 0 24 24" fill="none" xmlns="http://www.w3.org/2000/svg">
<g clip-path="url(#clip0_3310_591)">
<path d="M23.53 1.96636C23.1439 1.61259 22.5952 1.4947 22.0978 1.65862L0.995213 8.61492C0.420104 8.80448 0.0301044 9.31786 0.00165128 9.92269C-0.026755 10.5276 0.313323 11.0753 0.868041 11.3181L6.08687 13.6014C6.11232 13.7196 7.61049 20.6681 7.66144 20.9043C7.72683 21.2077 7.88082 21.4779 8.20702 21.5611C8.53697 21.6451 8.77008 21.4648 9.01627 21.2805C9.15329 21.1779 12.8891 18.3805 12.8891 18.3805L17.4167 22.0855C17.6804 22.3014 18.0027 22.414 18.3314 22.414C18.4878 22.4139 18.6458 22.3884 18.7995 22.3363C19.276 22.1747 19.6292 21.7858 19.7444 21.296L23.9616 3.36623C24.0814 2.85647 23.9161 2.32012 23.53 1.96636ZM9.35363 14.9099C9.35105 14.916 9.34852 14.9228 9.34613 14.9311L8.47313 17.9812L7.49888 13.4626L14.1981 9.74053L9.51432 14.6379C9.44054 14.7151 9.38626 14.8084 9.35363 14.9099ZM9.63071 19.0595L10.0272 17.6741L10.4065 16.349L11.7654 17.461L9.63071 19.0595ZM22.5894 3.04345L18.3723 20.9732C18.3702 20.9821 18.3674 20.9944 18.3468 21.0014C18.3263 21.0084 18.3164 21.0004 18.3094 20.9946L13.3551 16.9405C13.355 16.9404 13.3549 16.9403 13.3547 16.9402L11.0593 15.0618L18.4338 7.35094C18.6747 7.09908 18.6953 6.70903 18.4823 6.43317C18.2693 6.15726 17.8867 6.07847 17.5822 6.24778L6.66258 12.3148L1.43307 10.0267C1.41713 10.0197 1.40837 10.0158 1.40963 9.98887C1.4109 9.96202 1.41999 9.95897 1.43649 9.95353L22.539 2.99728C22.5493 2.99395 22.5608 2.99011 22.5778 3.00558C22.5947 3.02114 22.5919 3.03295 22.5894 3.04345Z" fill="white"/>
</g>
<defs>
<clipPath id="clip0_3310_591">
<rect width="24" height="24" fill="white"/>
</clipPath>
</defs>
</svg>
