<svg width="25" height="25" viewBox="0 0 25 25" fill="none" xmlns="http://www.w3.org/2000/svg">
<g clip-path="url(#clip0_3310_613)">
<path d="M24.12 14.4718C24.8658 8.19372 23.7617 4.23017 21.77 2.43746L21.771 2.43642C18.5565 -0.625035 7.70021 -1.07816 3.85437 2.57392C2.12729 4.36038 1.51895 6.98226 1.45229 10.2281C1.38562 13.475 1.30645 19.5573 6.97416 21.2073H6.97937L6.97416 23.7271C6.97416 23.7271 6.93562 24.7479 7.58771 24.9531C8.33354 25.1948 8.67104 24.7208 10.9908 21.95C14.87 22.2864 17.8492 21.5156 18.1877 21.4031C18.971 21.1406 23.4033 20.5541 24.12 14.4718ZM11.3731 20.1771C11.3731 20.1771 8.91792 23.2385 8.15437 24.0333C7.90437 24.2916 7.63041 24.2677 7.63458 23.7552C7.63458 23.4187 7.65333 19.5718 7.65333 19.5718C2.84812 18.1948 3.13146 13.0156 3.18354 10.3062C3.23562 7.5958 3.73146 5.37601 5.19396 3.88122C8.56792 0.717673 18.0856 1.42496 20.5106 3.70413C23.4752 6.33226 22.42 13.7573 22.4263 14.0104C21.8169 19.0875 18.2252 19.4093 17.5648 19.6291C17.2825 19.7229 14.6627 20.3968 11.3731 20.1771Z" fill="#65BA22"/>
<path d="M12.7305 4.47607C12.3294 4.47607 12.3294 5.10107 12.7305 5.10628C15.8419 5.13024 18.4044 7.29899 18.4325 11.2771C18.4325 11.6969 19.0471 11.6917 19.0419 11.2719H19.0409C19.0075 6.98545 16.2096 4.50003 12.7305 4.47607Z" fill="#65BA22"/>
<path d="M16.8248 10.6177C16.8154 11.0323 17.429 11.0521 17.4342 10.6323C17.4852 8.26879 16.0279 6.32191 13.2894 6.1167C12.8883 6.08754 12.8467 6.71775 13.2467 6.74691C15.6217 6.92712 16.8727 8.54796 16.8248 10.6177Z" fill="#65BA22"/>
<path d="M16.1672 13.3062C15.6526 13.0083 15.1286 13.1937 14.912 13.4864L14.4588 14.0729C14.2286 14.3708 13.7984 14.3312 13.7984 14.3312C10.6588 13.501 9.81924 10.2156 9.81924 10.2156C9.81924 10.2156 9.7807 9.77078 10.0682 9.53224L10.6349 9.06349C10.9182 8.83849 11.0974 8.29682 10.8088 7.76453C10.038 6.37182 9.52028 5.89161 9.25674 5.52286C8.97966 5.17599 8.56299 5.09786 8.12966 5.33224H8.12028C7.21924 5.85932 6.23278 6.84578 6.54841 7.8614C7.08695 8.93224 8.07653 12.3458 11.2307 14.9249C12.713 16.1447 15.0588 17.3947 16.0547 17.6833L16.064 17.6979C17.0453 18.0249 17.9995 16.9999 18.5088 16.0718V16.0645C18.7349 15.6156 18.6599 15.1906 18.3297 14.9124C17.7442 14.3416 16.8609 13.7114 16.1672 13.3062Z" fill="#65BA22"/>
<path d="M13.7179 8.44167C14.7189 8.5 15.2044 9.02292 15.2564 10.0969C15.2752 10.5167 15.8846 10.4875 15.8658 10.0677C15.7991 8.66562 15.0679 7.88437 13.7512 7.81146C13.3502 7.7875 13.3127 8.41771 13.7179 8.44167Z" fill="#65BA22"/>
</g>
<defs>
<clipPath id="clip0_3310_613">
<rect width="25" height="25" fill="white"/>
</clipPath>
</defs>
</svg>
