<svg width="40" height="40" viewBox="0 0 40 40" fill="none" xmlns="http://www.w3.org/2000/svg">
<g clip-path="url(#clip0_2971_45)">
<path d="M38.0711 8.93336H34.0922L30.3356 4.50406C30.1276 4.26134 29.8695 4.06665 29.5789 3.93345C29.2883 3.80025 28.9723 3.73171 28.6527 3.73256H11.9346C11.6558 3.73149 11.3796 3.78573 11.122 3.89216C10.8643 3.99858 10.6303 4.15507 10.4336 4.35256C10.4209 4.36526 10.4087 4.37856 10.3972 4.39256L6.61 8.93336H1.9288C1.41743 8.93394 0.92717 9.13734 0.565576 9.49893C0.203982 9.86053 0.000582277 10.3508 0 10.8622L0 34.3387C0.000582226 34.85 0.203978 35.3403 0.565569 35.7019C0.927161 36.0635 1.41742 36.2669 1.9288 36.2676H38.0711C38.5825 36.267 39.0728 36.0636 39.4344 35.702C39.796 35.3403 39.9994 34.8501 40 34.3387V10.8622C39.9994 10.3508 39.796 9.8605 39.4344 9.4989C39.0728 9.1373 38.5825 8.93392 38.0711 8.93336ZM11.2993 5.18396C11.4707 5.02133 11.6983 4.93125 11.9346 4.93256H28.6527C28.7987 4.93083 28.9432 4.96123 29.0761 5.02159C29.209 5.08195 29.3271 5.17081 29.4218 5.28186L32.5187 8.93336H30.8914L29.1747 7.21676C28.7743 6.81777 28.2326 6.59282 27.6673 6.59076H13.0309C12.7518 6.59063 12.4754 6.6459 12.2177 6.75335C11.9601 6.86081 11.7263 7.01832 11.53 7.21676L9.8133 8.93336H8.1722L11.2993 5.18396ZM29.5362 9.27506C29.3419 9.40928 29.174 9.57805 29.0407 9.77296L27.2025 12.4601C27.1356 12.5579 27.0458 12.6379 26.941 12.6931C26.8362 12.7484 26.7195 12.7773 26.601 12.7773H13.3925C13.274 12.7773 13.1573 12.7484 13.0524 12.6931C12.9476 12.6378 12.8579 12.5578 12.791 12.46C10.7826 9.52466 10.9286 9.72996 10.8301 9.61406L12.3785 8.06576C12.4637 7.97915 12.5652 7.91029 12.6772 7.86317C12.7892 7.81606 12.9094 7.79161 13.0309 7.79126H27.6673C27.9145 7.79243 28.1513 7.89107 28.3263 8.06576L29.5362 9.27506ZM38.8 34.3387C38.7997 34.5319 38.7228 34.7171 38.5862 34.8537C38.4496 34.9904 38.2643 35.0673 38.0711 35.0676H1.9288C1.73559 35.0672 1.55039 34.9903 1.41378 34.8537C1.27717 34.7171 1.20029 34.5319 1.2 34.3387V10.8622C1.20032 10.669 1.2772 10.4838 1.41381 10.3472C1.55042 10.2106 1.73561 10.1337 1.9288 10.1334H9.3609C9.4794 10.1333 9.59612 10.1622 9.70093 10.2175C9.80575 10.2727 9.8955 10.3528 9.9624 10.4506L11.8006 13.1372C11.9776 13.3961 12.2151 13.6079 12.4925 13.7543C12.7699 13.9007 13.0788 13.9772 13.3925 13.9772H26.601C26.9147 13.9772 27.2236 13.9007 27.501 13.7543C27.7784 13.608 28.0159 13.3961 28.1929 13.1372L30.0311 10.4506C30.098 10.3527 30.1877 10.2727 30.2926 10.2175C30.3974 10.1622 30.5141 10.1333 30.6326 10.1334H38.0711C38.2643 10.1336 38.4495 10.2105 38.5862 10.3471C38.7228 10.4837 38.7997 10.6689 38.8 10.8622V34.3387Z" fill="#65BA22"/>
<path d="M20.0002 15.2523C18.1962 15.2523 16.4327 15.7873 14.9327 16.7895C13.4327 17.7918 12.2636 19.2163 11.5732 20.883C10.8829 22.5497 10.7022 24.3837 11.0542 26.1531C11.4061 27.9225 12.2748 29.5477 13.5505 30.8233C14.8261 32.099 16.4514 32.9677 18.2207 33.3197C19.9901 33.6716 21.8241 33.491 23.4908 32.8006C25.1575 32.1102 26.582 30.9411 27.5843 29.4411C28.5865 27.9411 29.1215 26.1776 29.1215 24.3736C29.1188 21.9553 28.1569 19.6369 26.4469 17.9269C24.7369 16.2169 22.4185 15.255 20.0002 15.2523ZM20.0002 32.2949C18.4335 32.2949 16.902 31.8303 15.5994 30.9599C14.2967 30.0895 13.2814 28.8524 12.6819 27.405C12.0823 25.9575 11.9255 24.3648 12.2311 22.8282C12.5368 21.2917 13.2912 19.8802 14.399 18.7724C15.5068 17.6646 16.9183 16.9102 18.4548 16.6045C19.9914 16.2989 21.5841 16.4557 23.0316 17.0553C24.479 17.6548 25.7161 18.6701 26.5865 19.9728C27.4569 21.2754 27.9215 22.8069 27.9215 24.3736C27.9192 26.4738 27.0839 28.4872 25.5989 29.9723C24.1138 31.4573 22.1004 32.2926 20.0002 32.2949Z" fill="#65BA22"/>
<path d="M22.2854 18.538C22.2854 18.3789 22.2222 18.2262 22.1097 18.1137C21.9972 18.0012 21.8446 17.938 21.6854 17.938H18.3154C18.1563 17.938 18.0037 18.0012 17.8912 18.1137C17.7786 18.2262 17.7154 18.3789 17.7154 18.538V22.088H14.1654C14.0063 22.088 13.8537 22.1512 13.7412 22.2637C13.6286 22.3762 13.5654 22.5289 13.5654 22.688V26.058C13.5654 26.2171 13.6286 26.3697 13.7412 26.4823C13.8537 26.5948 14.0063 26.658 14.1654 26.658H17.7154V30.208C17.7154 30.3671 17.7786 30.5197 17.8912 30.6322C18.0037 30.7448 18.1563 30.808 18.3154 30.808H21.6854C21.8446 30.808 21.9972 30.7448 22.1097 30.6322C22.2222 30.5197 22.2854 30.3671 22.2854 30.208V26.658H25.8359C25.9951 26.658 26.1477 26.5948 26.2602 26.4823C26.3727 26.3697 26.4359 26.2171 26.4359 26.058V22.688C26.4359 22.5289 26.3727 22.3762 26.2602 22.2637C26.1477 22.1512 25.9951 22.088 25.8359 22.088H22.2854V18.538ZM25.2354 23.288V25.458H21.6854C21.5263 25.458 21.3737 25.5212 21.2612 25.6337C21.1486 25.7462 21.0854 25.8989 21.0854 26.058V29.608H18.9154V26.058C18.9154 25.8989 18.8522 25.7462 18.7397 25.6337C18.6272 25.5212 18.4746 25.458 18.3154 25.458H14.7654V23.288H18.3154C18.4746 23.288 18.6272 23.2248 18.7397 23.1123C18.8522 22.9997 18.9154 22.8471 18.9154 22.688V19.138H21.0854V22.688C21.0854 22.8471 21.1486 22.9997 21.2612 23.1123C21.3737 23.2248 21.5263 23.288 21.6854 23.288H25.2354Z" fill="#65BA22"/>
</g>
<defs>
<clipPath id="clip0_2971_45">
<rect width="40" height="40" fill="white"/>
</clipPath>
</defs>
</svg>
