<svg width="40" height="40" viewBox="0 0 40 40" fill="none" xmlns="http://www.w3.org/2000/svg">
<path d="M23.0318 15.26C21.5838 13.756 19.2558 16.06 20.7558 17.532C22.2558 19.004 24.5238 16.72 23.0318 15.26ZM21.8918 17.004C21.7532 16.9762 21.6285 16.9012 21.5389 16.7918C21.4494 16.6824 21.4004 16.5454 21.4004 16.404C21.4004 16.2626 21.4494 16.1256 21.5389 16.0162C21.6285 15.9069 21.7532 15.8319 21.8918 15.804C22.0304 15.8319 22.1551 15.9069 22.2447 16.0162C22.3343 16.1256 22.3832 16.2626 22.3832 16.404C22.3832 16.5454 22.3343 16.6824 22.2447 16.7918C22.1551 16.9012 22.0304 16.9762 21.8918 17.004Z" fill="#65BA22"/>
<path d="M5.472 34.628H4C3.86739 34.628 3.74021 34.6807 3.64645 34.7744C3.55268 34.8682 3.5 34.9954 3.5 35.128V37.5C3.5 37.6326 3.55268 37.7598 3.64645 37.8535C3.74021 37.9473 3.86739 38 4 38H34C34.1326 38 34.2598 37.9473 34.3536 37.8535C34.4473 37.7598 34.5 37.6326 34.5 37.5V35.128C34.5 34.9954 34.4473 34.8682 34.3536 34.7744C34.2598 34.6807 34.1326 34.628 34 34.628H32.54C32.344 24.228 26.14 17.26 25.124 16.18C25.0849 15.5686 24.8711 14.9814 24.508 14.488L28.088 10.888C28.656 10.356 27.452 9.65197 27.2 9.28797L29.848 6.63997L30.4 7.19997C30.852 7.66397 31.572 6.94797 31.108 6.49597C31.076 6.45197 30.224 5.63597 30.208 5.58397C29.56 4.93197 27.36 2.74397 26.748 2.13597C26.296 1.68397 25.572 2.39997 26.04 2.85197L26.592 3.40397L23.944 6.05597C23.584 5.79997 22.88 4.59997 22.344 5.16797L10.604 16.912C10.156 17.34 10.808 17.816 11.088 18.112C10.856 18.512 9.112 19.556 9.764 20.144L13.116 23.5C13.2117 23.592 13.3392 23.6436 13.472 23.644C13.6037 23.6442 13.7302 23.5925 13.824 23.5L15.148 22.176C15.436 22.456 15.912 23.108 16.348 22.66L19.988 19.02C20.4374 19.3417 20.9624 19.5415 21.512 19.6C21.872 20.908 23.072 25.864 21.232 28.38C20.5 29.38 19.38 29.868 17.812 29.868H14.868V28.668H17.812C17.9446 28.668 18.0718 28.6153 18.1656 28.5215C18.2593 28.4278 18.312 28.3006 18.312 28.168V25.812C18.312 25.6794 18.2593 25.5522 18.1656 25.4584C18.0718 25.3646 17.9446 25.312 17.812 25.312H4.764C4.69819 25.3114 4.63293 25.324 4.57203 25.3489C4.51113 25.3739 4.45579 25.4107 4.40926 25.4572C4.36272 25.5038 4.32591 25.5591 4.30098 25.62C4.27604 25.6809 4.26347 25.7462 4.264 25.812V28.188C4.26347 28.2538 4.27604 28.319 4.30098 28.3799C4.32591 28.4408 4.36272 28.4962 4.40926 28.5427C4.45579 28.5892 4.51113 28.6261 4.57203 28.651C4.63293 28.6759 4.69819 28.6885 4.764 28.688H7.708V30.108C5.94 31.068 5.556 33.556 5.472 34.628ZM33.5 37H4.5V35.628H33.5V37ZM26.452 34.628C25.544 28.184 25.756 23.464 27.04 22C27.2211 21.7732 27.4733 21.6139 27.756 21.548C30.1018 25.5247 31.4061 30.0291 31.548 34.644L26.452 34.628ZM21.892 18.628C18.984 18.672 18.976 14.092 21.892 14.136C24.8 14.108 24.8 18.684 21.892 18.64V18.628ZM27.3 4.11197L29.14 5.95597L26.492 8.60397L24.648 6.75997L27.3 4.11197ZM13.472 22.432L10.824 19.78L11.792 18.8L14.44 21.448L13.472 22.432ZM16 21.6L11.664 17.264L22.7 6.22797C23.796 7.33597 25.9 9.45597 27.028 10.552L23.828 13.772C20.96 11.572 17.096 15.444 19.292 18.308L16 21.6ZM22.04 28.984C24.064 26.216 22.992 21.276 22.54 19.576C23.0851 19.4619 23.5918 19.2101 24.012 18.8446C24.4321 18.4791 24.7516 18.012 24.94 17.488C25.7732 18.4875 26.5363 19.5433 27.224 20.648C26.8576 20.7925 26.5331 21.0262 26.28 21.328C24.28 23.636 24.86 30.464 25.44 34.628H6.476C6.564 33.636 6.928 31.464 8.412 30.884H17.812C19.696 30.884 21.116 30.244 22.04 28.984ZM5.264 26.312H17.312V27.688H5.264V26.312ZM13.868 28.688V29.888H8.708V28.688H13.868Z" fill="#65BA22"/>
</svg>
