<svg width="40" height="40" viewBox="0 0 40 40" fill="none" xmlns="http://www.w3.org/2000/svg">
<path d="M20 19.375C24.125 19.375 27.5 15.5625 27.5 10.9375C27.5 6.3125 24.125 2.5 20 2.5C15.875 2.5 12.5 6.3125 12.5 10.9375C12.5 15.5625 15.875 19.375 20 19.375ZM20 3.75C23.4375 3.75 26.25 7 26.25 10.9375C26.25 14.875 23.4375 18.125 20 18.125C16.5625 18.125 13.75 14.875 13.75 10.9375C13.75 7 16.5625 3.75 20 3.75ZM27.9375 22.125C27.75 22 25.3125 21.125 23.0625 20.8125C22.9375 20.8125 22.75 20.8125 22.625 20.9375L20 22.9375L17.375 20.9375C17.3125 20.875 17.25 20.875 17.1875 20.8125C17.125 20.8125 17 20.8125 16.9375 20.8125C14.75 21.125 12.5 21.875 12.0625 22.125C3.25 25.8125 3.125 35.5 3.125 35.625C3.125 36 3.375 36.25 3.75 36.25H36.25C36.625 36.25 36.875 36 36.875 35.625C36.875 35.5 36.75 25.8125 27.9375 22.125ZM27.5 27.5C28.1875 27.5 28.75 28.0625 28.75 28.75C28.75 29.4375 28.1875 30 27.5 30C26.8125 30 26.25 29.4375 26.25 28.75C26.25 28.0625 26.8125 27.5 27.5 27.5ZM5.9375 29.4375C7.25 26.75 9.25 24.8125 11.875 23.5625V26.375C9.4375 26.8125 8.75 29.6875 8.75 31.3125C8.75 31.6875 9 31.9375 9.375 31.9375H10.625C11 31.9375 11.25 31.6875 11.25 31.3125C11.25 30.9375 11 30.6875 10.625 30.6875H10.0625C10.1875 29.625 10.6875 27.5625 12.5 27.5625C14.3125 27.5625 14.8125 29.625 14.9375 30.6875H14.375C14 30.6875 13.75 30.9375 13.75 31.3125C13.75 31.6875 14 31.9375 14.375 31.9375H15.625C16 31.9375 16.25 31.6875 16.25 31.3125C16.25 29.6875 15.5625 26.8125 13.125 26.375V23.0625C14.25 22.625 15.5 22.3125 16.8125 22.1875L19.375 24.125V35H4.4375C4.5 33.9375 4.8125 31.75 5.9375 29.4375ZM20.625 35V24.0625L23.1875 22.125C24.5625 22.3125 25.8125 22.625 26.875 23.0625V26.375C25.8125 26.625 25 27.625 25 28.8125C25 30.1875 26.125 31.3125 27.5 31.3125C28.875 31.3125 30 30.1875 30 28.8125C30 27.625 29.1875 26.6875 28.125 26.375V23.5625C34.4375 26.5625 35.4375 32.9375 35.625 35H20.625Z" fill="#65BA22"/>
</svg>
