<svg width="40" height="40" viewBox="0 0 40 40" fill="none" xmlns="http://www.w3.org/2000/svg">
<g clip-path="url(#clip0_2970_12)">
<path d="M40 20C40 25.3422 37.9196 30.3646 34.1421 34.1421C30.3646 37.9196 25.3422 40 20 40C14.6578 40 9.63539 37.9196 5.85781 34.1421C2.08039 30.3646 0 25.3422 0 20C0 14.6578 2.08039 9.63539 5.85781 5.85789C9.63539 2.08039 14.6578 0 20 0C22.751 0 25.4163 0.548516 27.9217 1.63039C29.9192 2.49289 31.7405 3.66133 33.353 5.11063V3.84742C33.353 3.41594 33.7028 3.06617 34.1342 3.06617C34.5656 3.06617 34.9155 3.41594 34.9155 3.84742V6.97742C34.9155 7.40891 34.5656 7.75867 34.1342 7.75867H31.0043C30.5729 7.75867 30.223 7.40891 30.223 6.97742C30.223 6.54594 30.5729 6.19617 31.0043 6.19617H32.2246C28.8519 3.19836 24.5616 1.5625 20 1.5625C9.83352 1.5625 1.5625 9.83352 1.5625 20C1.5625 30.1665 9.83352 38.4375 20 38.4375C30.1665 38.4375 38.4375 30.1665 38.4375 20C38.4375 19.5685 38.7873 19.2188 39.2188 19.2188C39.6502 19.2188 40 19.5685 40 20ZM18.5084 17.793C18.5009 14.9721 16.2036 12.6795 13.381 12.6795C10.5538 12.6795 8.25359 14.9797 8.25359 17.807C8.25359 18.2384 8.60344 18.5882 9.03484 18.5882C9.46625 18.5882 9.81609 18.2384 9.81609 17.807C9.81609 15.8413 11.4153 14.242 13.381 14.242C15.3467 14.242 16.9459 15.8413 16.9459 17.807C16.9459 17.8169 16.9462 17.8269 16.9466 17.8368C16.9934 19.0611 14.2874 21.1945 12.1132 22.9086C10.8187 23.9291 9.48016 24.9845 8.48125 25.988C8.25852 26.2117 8.19234 26.5475 8.31352 26.839C8.43469 27.1305 8.7193 27.3205 9.03492 27.3205H17.7211C18.1525 27.3205 18.5023 26.9707 18.5023 26.5392C18.5023 26.1077 18.1525 25.758 17.7211 25.758H11.0634C11.7048 25.2203 12.399 24.673 13.0805 24.1356C15.9039 21.9098 18.5711 19.807 18.5084 17.793ZM27.3927 26.5392V23.9712H20.5184C20.2192 23.9712 19.9463 23.8003 19.8156 23.5312C19.6849 23.262 19.7195 22.942 19.9045 22.7068L27.56 12.9777C27.7659 12.7159 28.115 12.6136 28.4296 12.7225C28.7441 12.8314 28.9552 13.1278 28.9552 13.4607V22.4086H30.9652C31.3966 22.4086 31.7464 22.7584 31.7464 23.1898C31.7464 23.6213 31.3966 23.9711 30.9652 23.9711H28.9552V26.5391C28.9552 26.9706 28.6054 27.3204 28.174 27.3204C27.7426 27.3204 27.3927 26.9707 27.3927 26.5392ZM27.3927 22.4087V15.717L22.1272 22.4087H27.3927Z" fill="#65BA22"/>
</g>
<defs>
<clipPath id="clip0_2970_12">
<rect width="40" height="40" fill="white"/>
</clipPath>
</defs>
</svg>
