<svg width="28" height="28" viewBox="0 0 28 28" fill="none" xmlns="http://www.w3.org/2000/svg">
<g clip-path="url(#clip0_2971_473)">
<path d="M26.0387 5.16951L9.91656 21.2905C9.80817 21.3993 9.67935 21.4857 9.5375 21.5446C9.39566 21.6035 9.24357 21.6339 9.08998 21.6339C8.93638 21.6339 8.7843 21.6035 8.64245 21.5446C8.5006 21.4857 8.37179 21.3993 8.26339 21.2905L2.02873 15.05C1.92034 14.9412 1.79152 14.8548 1.64967 14.7959C1.50783 14.737 1.35574 14.7067 1.20215 14.7067C1.04855 14.7067 0.896466 14.737 0.75462 14.7959C0.612774 14.8548 0.483958 14.9412 0.375564 15.05C0.266741 15.1584 0.180393 15.2872 0.121475 15.4291C0.062556 15.5709 0.0322266 15.723 0.0322266 15.8766C0.0322266 16.0302 0.062556 16.1823 0.121475 16.3241C0.180393 16.466 0.266741 16.5948 0.375564 16.7032L6.61256 22.939C7.2705 23.5957 8.16212 23.9646 9.09173 23.9646C10.0213 23.9646 10.913 23.5957 11.5709 22.939L27.6919 6.82151C27.8005 6.71314 27.8867 6.58439 27.9455 6.44266C28.0044 6.30092 28.0346 6.14897 28.0346 5.99551C28.0346 5.84205 28.0044 5.6901 27.9455 5.54836C27.8867 5.40663 27.8005 5.27788 27.6919 5.16951C27.5835 5.06069 27.4547 4.97434 27.3128 4.91542C27.171 4.8565 27.0189 4.82617 26.8653 4.82617C26.7117 4.82617 26.5596 4.8565 26.4178 4.91542C26.2759 4.97434 26.1471 5.06069 26.0387 5.16951Z" fill="#65BA22"/>
</g>
<defs>
<clipPath id="clip0_2971_473">
<rect width="28" height="28" fill="white"/>
</clipPath>
</defs>
</svg>
